<?xml version="1.0" encoding="utf-8"?>
<!-- Generator: Adobe Illustrator 23.0.3, SVG Export Plug-In . SVG Version: 6.00 Build 0)  -->
<svg version="1.1" id="Ebene_1" xmlns="http://www.w3.org/2000/svg" xmlns:xlink="http://www.w3.org/1999/xlink" x="0px" y="0px"
	 viewBox="0 0 55.1 52.2" style="enable-background:new 0 0 55.1 52.2;" xml:space="preserve">
<style type="text/css">
	.st0{fill:none;stroke:#808080;stroke-width:1.2064;stroke-linecap:round;stroke-miterlimit:10;}
	.st1{clip-path:url(#SVGID_2_);}
	.st2{fill:none;}
	.st3{fill:none;stroke:#808080;stroke-width:2;}
</style>
<line class="st0" x1="54.3" y1="0.8" x2="54.3" y2="51.3"/>
<g>
	<g>
		<defs>
			<rect id="SVGID_1_" x="0.4" y="12.3" width="23.5" height="27.6"/>
		</defs>
		<clipPath id="SVGID_2_">
			<use xlink:href="#SVGID_1_"  style="overflow:visible;"/>
		</clipPath>
		<g id="passwordIcon" class="st1">
			<g id="Rechteck_17" transform="translate(0 10.818)">
				<path class="st2" d="M3.4,12.3h17.5c1.7,0,3,1.3,3,3v8.8c0,2.8-2.2,5-5,5l0,0H5.4c-2.8,0-5-2.2-5-5v-8.8
					C0.4,13.7,1.7,12.3,3.4,12.3z"/>
				<path class="st3" d="M3.4,13.3h17.5c1.1,0,2,0.9,2,2v8.8c0,2.2-1.8,4-4,4H5.4c-2.2,0-4-1.8-4-4v-8.8C1.4,14.2,2.3,13.3,3.4,13.3
					z"/>
			</g>
			<path id="Pfad_10" class="st3" d="M3.6,23.8v-5c0,0,0.7-5.4,8.6-5.4s8.4,5.4,8.4,5.4v5"/>
		</g>
	</g>
</g>
</svg>
