<?xml version="1.0" encoding="utf-8"?>
<!-- Generator: Adobe Illustrator 23.0.3, SVG Export Plug-In . SVG Version: 6.00 Build 0)  -->
<svg version="1.1" id="Ebene_1" xmlns="http://www.w3.org/2000/svg" xmlns:xlink="http://www.w3.org/1999/xlink" x="0px" y="0px"
	 viewBox="0 0 55.1 52.2" style="enable-background:new 0 0 55.1 52.2;" xml:space="preserve">
<style type="text/css">
	.st0{clip-path:url(#SVGID_2_);}
	.st1{fill:none;}
	.st2{fill:#808080;}
	.st3{fill:none;stroke:#808080;stroke-width:2;}
	.st4{fill:none;stroke:#808080;stroke-width:1.2057;stroke-linecap:round;stroke-miterlimit:10;}
</style>
<g>
	<g>
		<g>
			<defs>
				<rect id="SVGID_1_" x="0.4" y="9" width="23.5" height="34"/>
			</defs>
			<clipPath id="SVGID_2_">
				<use xlink:href="#SVGID_1_"  style="overflow:visible;"/>
			</clipPath>
			<g id="userIcon" class="st0">
				<g id="Differenzmenge_1" transform="translate(0 12.517)">
					<path class="st1" d="M12.9,30.5h-1.5c-6.1,0-11-4.9-11-11v-2.2c0-3.4,1.6-6.6,4.3-8.7c1.6,2.8,4.6,4.5,7.9,4.5
						c3.1,0,5.9-1.5,7.6-4.1c2.4,2.1,3.8,5.1,3.8,8.3v2.2C23.9,25.6,19,30.5,12.9,30.5L12.9,30.5z"/>
					<path class="st2" d="M12.9,28.5c2.4,0,4.7-0.9,6.4-2.6s2.6-4,2.6-6.4v-2.2c0-1.9-0.6-3.7-1.7-5.3c-2,2-4.8,3.1-7.7,3.1
						c-3.1,0-6-1.3-8.1-3.5c-1.3,1.6-2,3.6-2,5.7v2.2c0,2.4,0.9,4.7,2.6,6.4s4,2.6,6.4,2.6H12.9 M12.9,30.5h-1.5
						c-2.9,0-5.7-1.1-7.8-3.2s-3.2-4.8-3.2-7.8v-2.2c0-3.4,1.6-6.6,4.3-8.7c1.6,2.8,4.6,4.5,7.9,4.5c3.1,0,5.9-1.5,7.6-4.1
						c2.4,2.1,3.8,5.1,3.8,8.3v2.2c0,2.9-1.1,5.7-3.2,7.8C18.6,29.4,15.8,30.5,12.9,30.5z"/>
				</g>
				<g id="Ellipse_4" transform="translate(3.03)">
					<circle class="st1" cx="9.5" cy="18.1" r="9.1"/>
					<circle class="st3" cx="9.5" cy="18.1" r="8.1"/>
				</g>
			</g>
		</g>
	</g>
</g>
<line class="st4" x1="54.3" y1="0.8" x2="54.3" y2="51.3"/>
</svg>
